<?xml version="1.0" standalone="no"?><!DOCTYPE svg PUBLIC "-//W3C//DTD SVG 1.1//EN" "http://www.w3.org/Graphics/SVG/1.1/DTD/svg11.dtd"><svg t="1716946113386" class="icon" viewBox="0 0 1170 1024" version="1.1" xmlns="http://www.w3.org/2000/svg" p-id="6953" xmlns:xlink="http://www.w3.org/1999/xlink" width="228.515625" height="200"><path d="M1020.700706 246.323271H364.049919l243.023977-153.105106a48.604796 48.604796 0 1 0-49.576891-82.628152L180.323791 246.323271H145.814387a145.814387 145.814387 0 0 0-145.814387 145.814387v486.047955a145.814387 145.814387 0 0 0 145.814387 145.814387h874.886319a145.814387 145.814387 0 0 0 145.814387-145.814387V392.137658a145.814387 145.814387 0 0 0-145.814387-145.814387zM486.047955 780.976022H243.023978a48.604796 48.604796 0 1 1 0-97.209591h243.023977a48.604796 48.604796 0 1 1 0 97.209591z m0-194.419182H243.023978a48.604796 48.604796 0 0 1 0-97.209591h243.023977a48.604796 48.604796 0 0 1 0 97.209591z m340.233569 194.419182a48.604796 48.604796 0 0 1 0-97.209591 48.604796 48.604796 0 1 0-48.604795-48.604795 48.604796 48.604796 0 1 1-97.209591 0 145.814387 145.814387 0 1 1 145.814386 145.814386z" fill="#d4237a" p-id="6954"></path></svg>